<?xml version="1.0" standalone="no"?>
<!DOCTYPE svg PUBLIC "-//W3C//DTD SVG 20010904//EN"
 "http://www.w3.org/TR/2001/REC-SVG-20010904/DTD/svg10.dtd">
<svg version="1.0" xmlns="http://www.w3.org/2000/svg"
 width="512.000000pt" height="512.000000pt" viewBox="0 0 512.000000 512.000000"
 preserveAspectRatio="xMidYMid meet">

<g transform="translate(0.000000,512.000000) scale(0.100000,-0.100000)"
fill="#000000" stroke="none">
<path d="M563 5100 c-228 -60 -417 -223 -507 -438 -59 -140 -56 -17 -56 -2103
0 -1866 1 -1918 19 -1992 69 -268 281 -479 548 -548 73 -18 118 -19 965 -19
l888 0 0 910 0 910 -300 0 -300 0 0 300 0 300 300 0 300 0 0 378 c0 208 5 414
10 458 21 170 94 319 214 439 120 120 271 194 437 215 46 5 253 10 461 10
l378 0 0 -300 0 -299 -347 -3 c-393 -3 -377 0 -466 -86 -84 -82 -87 -99 -87
-482 l0 -330 435 0 435 0 -5 -22 c-5 -25 -95 -563 -95 -572 0 -3 -173 -6 -385
-6 l-385 0 0 -910 0 -910 728 0 c689 0 733 1 805 19 268 69 479 281 548 548
18 74 19 129 19 1993 0 1871 0 1919 -20 1993 -63 250 -246 447 -495 534 l-80
28 -1945 2 c-1883 2 -1947 1 -2017 -17z m3871 -290 c167 -24 305 -142 362
-310 18 -53 19 -119 19 -1940 0 -1821 -1 -1887 -19 -1940 -57 -168 -195 -286
-362 -310 -39 -5 -297 -10 -591 -10 l-523 0 0 610 0 610 365 0 365 0 5 23 c5
23 195 1163 195 1172 0 3 -209 5 -465 5 l-465 0 0 150 0 150 450 0 450 0 0
600 0 600 -584 0 c-460 0 -600 -3 -658 -14 -402 -77 -715 -369 -830 -775 -20
-69 -22 -105 -26 -393 l-3 -318 -300 0 -299 0 0 -600 0 -600 300 0 300 0 0
-610 0 -611 -727 3 -728 3 -60 24 c-137 55 -227 145 -279 280 l-21 56 -3 1840
c-2 1229 1 1866 8 1919 26 200 176 355 375 386 76 12 3666 12 3749 0z"/>
</g>
</svg>
