<svg height="383pt" viewBox="0 -14 383.93421 383" width="383pt" xmlns="http://www.w3.org/2000/svg"><g fill="#00acea"><path d="m291.933594 72.757812v67.878907h-21.378906v-65.21875h.78125c2.347656-.25 4.6875-.519531 7.039062-.8125 4.507812-.546875 9.027344-1.164063 13.558594-1.847657zm0 0"/><path d="m291.933594 72.636719v.121093c-4.53125.6875-9.050782 1.304688-13.558594 1.847657-2.351562.292969-4.691406.5625-7.039062.8125h-.78125v-24.761719c11.902343.332031 21.378906 10.074219 21.378906 21.980469zm0 0"/><path d="m272.855469.46875-20.0625 50.167969h-6.019531l-20.070313-50.167969zm0 0"/><path d="m235.933594 260.238281h-92.308594c0-25.492187 20.664062-46.15625 46.152344-46.15625 25.492187 0 46.15625 20.664063 46.15625 46.15625zm0 0"/><path d="m152.855469.46875-20.0625 50.167969h-3.777344c-.734375 0-1.464844.039062-2.191406.121093l-20.121094-50.289062zm0 0"/><path d="m80.933594 343.347656c-3.867188 0-7-3.132812-7-7v-27c0-3.867187 3.132812-7 7-7 3.867187 0 7 3.132813 7 7v27c0 3.867188-3.132813 7-7 7zm0 0"/><path d="m111.933594 320.347656c-3.867188 0-7-3.132812-7-7v-26c0-3.867187 3.132812-7 7-7 3.867187 0 7 3.132813 7 7v26c0 3.867188-3.132813 7-7 7zm0 0"/><path d="m240.933594 317.347656c-3.867188 0-7-3.132812-7-7v-23c0-3.867187 3.132812-7 7-7 3.867187 0 7 3.132813 7 7v23c0 3.867188-3.132813 7-7 7zm0 0"/><path d="m272.933594 355.347656c-3.867188 0-7-3.132812-7-7v-31c0-3.867187 3.132812-7 7-7 3.867187 0 7 3.132813 7 7v31c0 3.867188-3.132813 7-7 7zm0 0"/><path d="m297.933594 300.347656c-3.867188 0-7-3.132812-7-7v-22c0-3.867187 3.132812-7 7-7 3.867187 0 7 3.132813 7 7v22c0 3.867188-3.132813 7-7 7zm0 0"/><path d="m47.933594 301.347656c-3.867188 0-7-3.132812-7-7v-23c0-3.867187 3.132812-7 7-7 3.867187 0 7 3.132813 7 7v23c0 3.867188-3.132813 7-7 7zm0 0"/></g><path d="m374.433594 44.308594c-26.996094 10.15625-55.007813 17.375-83.550782 21.527344-4.277343.648437-8.644531 1.246093-13.363281 1.820312-2.3125.285156-4.613281.550781-6.921875.800781-3.699218.390625-6.449218 3.613281-6.253906 7.328125s3.265625 6.628906 6.984375 6.632813c.25 0 .5-.011719.75-.039063 2.386719-.253906 4.769531-.527344 7.148437-.824218 4.847657-.589844 9.347657-1.199219 13.753907-1.875 29.535156-4.300782 58.519531-11.777344 86.453125-22.296876 3.613281-1.378906 5.417968-5.425781 4.039062-9.039062-1.378906-3.609375-5.425781-5.417969-9.039062-4.035156zm0 0" fill="#fedb41"/><path d="m4.824219 57.523438c1.691406.53125 42.105469 13.171874 101.859375 21.347656.320312.042968.640625.066406.960937.066406 3.683594.003906 6.738281-2.851562 6.984375-6.527344.25-3.675781-2.394531-6.914062-6.046875-7.410156-58.484375-8-99.136719-20.699219-99.542969-20.828125-3.671874-1.117187-7.558593.929687-8.714843 4.589844-1.15625 3.660156.851562 7.566406 4.5 8.761719zm0 0" fill="#fedb41"/><path d="m300.304688 158.355469-29.371094 21.941406v-129.640625c-1-.019531-.789063-.25-1-.25h-137.140625l-6.007813.234375c-10.164062 1.164063-17.84375 9.765625-17.851562 19.996094v109.660156l-29.519532-21.941406-34.601562 60.035156 64.203125 42.015625h34.609375c0-25.488281 20.664062-46.152344 46.152344-46.152344 25.492187 0 46.15625 20.664063 46.15625 46.152344h34.621094l64.265624-42.015625zm0 0" fill="#00efd1"/><path d="m139.015625 174.40625h24.226563c3.867187 0 7-3.132812 7-7 0-3.863281-3.132813-7-7-7h-24.226563c-3.867187 0-7 3.136719-7 7 0 3.867188 3.132813 7 7 7zm0 0" fill="#fedb41"/></svg>