<?xml version="1.0" standalone="no"?>
<!DOCTYPE svg PUBLIC "-//W3C//DTD SVG 20010904//EN"
 "http://www.w3.org/TR/2001/REC-SVG-20010904/DTD/svg10.dtd">
<svg version="1.0" xmlns="http://www.w3.org/2000/svg"
 width="512.000000pt" height="512.000000pt" viewBox="0 0 512.000000 512.000000"
 preserveAspectRatio="xMidYMid meet">

<g transform="translate(0.000000,512.000000) scale(0.100000,-0.100000)"
fill="#000000" stroke="none">
<path d="M2310 5113 c-767 -78 -1447 -486 -1875 -1123 -385 -573 -521 -1259
-385 -1940 50 -250 149 -523 260 -722 l51 -90 -181 -615 c-100 -338 -180 -617
-177 -620 3 -2 282 77 620 177 l616 181 90 -51 c239 -135 552 -239 861 -287
163 -25 567 -25 730 1 445 70 843 240 1203 513 122 93 357 325 448 443 284
366 450 749 526 1205 14 88 18 165 18 380 -1 236 -4 287 -24 404 -127 738
-548 1364 -1190 1771 -286 180 -687 321 -1041 365 -113 14 -447 19 -550 8z
m501 -314 c473 -49 951 -273 1305 -611 899 -860 935 -2267 80 -3174 -179 -191
-396 -349 -651 -474 -326 -161 -626 -230 -995 -230 -419 0 -808 107 -1157 318
-56 34 -108 62 -115 62 -8 0 -196 -54 -418 -120 -222 -65 -405 -118 -407 -117
-1 2 52 184 118 407 65 222 119 410 119 417 0 7 -30 63 -67 124 -158 264 -267
587 -303 904 -24 216 -7 535 40 744 188 831 816 1483 1635 1696 262 68 521 85
816 54z"/>
<path d="M1659 4187 c-75 -21 -131 -61 -225 -159 -156 -164 -212 -310 -221
-584 -23 -655 312 -1350 857 -1780 544 -429 1367 -606 1810 -391 81 40 263
211 306 290 26 47 29 61 29 147 0 143 -1 145 -321 466 -316 316 -333 329 -464
329 -114 0 -157 -21 -270 -130 -52 -51 -111 -101 -130 -110 -47 -24 -134 -24
-182 1 -45 24 -525 521 -555 576 -48 86 -26 147 98 275 114 118 143 175 143
283 0 129 -11 145 -326 463 -227 228 -285 281 -330 302 -67 30 -157 39 -219
22z m331 -542 l244 -244 -91 -94 c-103 -107 -146 -180 -170 -291 -25 -121 1
-256 71 -361 56 -84 570 -611 629 -645 83 -48 167 -70 266 -70 158 0 252 42
386 171 50 49 96 89 101 89 5 0 119 -110 254 -245 l245 -245 -77 -75 c-109
-107 -178 -133 -378 -142 -278 -13 -580 57 -873 203 -566 281 -949 802 -1059
1439 -17 99 -19 149 -15 285 6 230 20 273 129 386 44 46 84 84 87 84 3 0 116
-110 251 -245z"/>
</g>
</svg>
